/* XPM */
static char *_631010427029[] = {
/* columns rows colors chars-per-pixel */
"16 16 8 1 ",
"  c #040406",
". c #060608",
"X c #263518",
"o c #683E2C",
"O c #3A5124",
"+ c #7E4C35",
"@ c #4B692F",
"# c None",
/* pixels */
"################",
"######.....#####",
"#####.o+++o.####",
"####.o+++++o.###",
"###.@@++++++@.##",
"##.OO@+OOOOOOO.#",
"##..o@oOOOOO...#",
"###.oOOOOOOO.###",
"###.ooO@.@@..###",
"###.ooO@@@@@.###",
"####.oOO@@@@.###",
"#####......O.###",
"######### X ####",
"#########  #####",
"################",
"################"
};
