/* XPM */
static char *_631010423920[] = {
/* columns rows colors chars-per-pixel */
"16 16 7 1 ",
"  c #040406",
". c #060608",
"X c #683E2C",
"o c #3A5124",
"O c #7E4C35",
"+ c #4B692F",
"@ c None",
/* pixels */
"@@@@@@@@@@@@@@@@",
"@@@@@@.....@@@@@",
"@@@@@.XOOOX.@@@@",
"@@...XOOOOOX...@",
"@@.o++OOOOOO+o.@",
"@@@.o+Ooooooo.@@",
"@@@.X+Xooooo.@@@",
"@@@.Xoo+.++..@@@",
"@@@.XXo+++++.@@@",
"@@@@.Xo+++++.@@@",
"@@@@.ooo++++.@@@",
"@@@@.......o.@@@",
"@@@@@@@@@@@  @@@",
"@@@@@@@@@@@@@@@@",
"@@@@@@@@@@@@@@@@",
"@@@@@@@@@@@@@@@@"
};
