/* XPM */
static char *_628250103059[] = {
/* columns rows colors chars-per-pixel */
"96 96 3 1 ",
"  c #494949",
". c #5A5A59",
"X c #696967",
/* pixels */
"XXXXXXXXXXXX.........XXXXXXXXXXXX............   XXXXXXXXX.........XXXXXX......XXX............   ",
"XXXXXXXXXXXX.........XXXXXXXXXXXX............   XXXXXXXXX.........XXXXXX......XXX............   ",
"XXXXXXXXXXXX.........XXXXXXXXXXXX............   XXXXXXXXX.........XXXXXX......XXX............   ",
"XXX..........................................   XXX..........................................   ",
"XXX..........................................   XXX..........................................   ",
"XXX..........................................   XXX..........................................   ",
"XXX..........................................   XXX..........................................   ",
"XXX..........................................   XXX..........................................   ",
"XXX..........................................   XXX..........................................   ",
"XXX..........................................   XXX..........................................   ",
"XXX..........................................   XXX..........................................   ",
"XXX..........................................   XXX..........................................   ",
"............XXX..............................   XXX..........................................   ",
"............XXX..............................   XXX..........................................   ",
"............XXX..............................   XXX..........................................   ",
".............................................   XXX..........................................   ",
".............................................   XXX..........................................   ",
".............................................   XXX..........................................   ",
".............................................   XXX..................XXXXXX..................   ",
".............................................   XXX..................XXXXXX..................   ",
".............................................   XXX..................XXXXXX..................   ",
"..............................   ............   ..................XXX            ............   ",
"..............................   ............   ..................XXX            ............   ",
"..............................   ............   ..................XXX            ............   ",
"XXX..........................................   ...............XXX               ............   ",
"XXX..........................................   ...............XXX               ............   ",
"XXX..........................................   ...............XXX               ............   ",
"XXX..........................................   .....................XXX      ...............   ",
"XXX..........................................   .....................XXX      ...............   ",
"XXX..........................................   .....................XXX      ...............   ",
"XXX............XXX...........................   XXX..........................................   ",
"XXX............XXX...........................   XXX..........................................   ",
"XXX............XXX...........................   XXX..........................................   ",
"XXX..........................................   XXX..........................................   ",
"XXX..........................................   XXX..........................................   ",
"XXX..........................................   XXX..........................................   ",
"...............      ........................   .........      ..............................   ",
"...............      ........................   .........      ..............................   ",
"...............      ........................   .........      ..............................   ",
"XXX............      ........................   XXX......      .....................   ......   ",
"XXX............      ........................   XXX......      .....................   ......   ",
"XXX............      ........................   XXX......      .....................   ......   ",
"XXX..........................................   XXX..............................         ...   ",
"XXX..........................................   XXX..............................         ...   ",
"XXX..........................................   XXX..............................         ...   ",
"                                                                                                ",
"                                                                                                ",
"                                                                                                ",
"XXXXXXXXXXXXXXX...XXXXXX......XXX............   XXXXXXXXXXXXXXXXXXXXXXXXXXXXXX...XXX.........   ",
"XXXXXXXXXXXXXXX...XXXXXX......XXX............   XXXXXXXXXXXXXXXXXXXXXXXXXXXXXX...XXX.........   ",
"XXXXXXXXXXXXXXX...XXXXXX......XXX............   XXXXXXXXXXXXXXXXXXXXXXXXXXXXXX...XXX.........   ",
"XXX..........................................   XXX..........................................   ",
"XXX..........................................   XXX..........................................   ",
"XXX..........................................   XXX..........................................   ",
"XXX..........................................   XXX..........................................   ",
"XXX..........................................   XXX..........................................   ",
"XXX..........................................   XXX..........................................   ",
"XXX..........................................   XXX..........................................   ",
"XXX..........................................   XXX..........................................   ",
"XXX..........................................   XXX..........................................   ",
"XXX..........................................   XXX.........XXXXXX...........................   ",
"XXX..........................................   XXX.........XXXXXX...........................   ",
"XXX..........................................   XXX.........XXXXXX...........................   ",
"XXX........................XXX............      XXX.........XXXXXX............XXX............   ",
"XXX........................XXX............      XXX.........XXXXXX............XXX............   ",
"XXX........................XXX............      XXX.........XXXXXX............XXX............   ",
".......................................         .............................................   ",
".......................................         .............................................   ",
".......................................         .............................................   ",
".......................................         XXX..........................................   ",
".......................................         XXX..........................................   ",
".......................................         XXX..........................................   ",
"..........................................      XXX.................................   ......   ",
"..........................................      XXX.................................   ......   ",
"..........................................      XXX.................................   ......   ",
"XXX......   .................................   .....................         ...............   ",
"XXX......   .................................   .....................         ...............   ",
"XXX......   .................................   .....................         ...............   ",
".........      ..............................   .....................         ...............   ",
".........      ..............................   .....................         ...............   ",
".........      ..............................   .....................         ...............   ",
".........      ............XXXXXX............   .............................................   ",
".........      ............XXXXXX............   .............................................   ",
".........      ............XXXXXX............   .............................................   ",
"...........................XXXXXXXXX.........   XXX..........................................   ",
"...........................XXXXXXXXX.........   XXX..........................................   ",
"...........................XXXXXXXXX.........   XXX..........................................   ",
".............................................   .............................................   ",
".............................................   .............................................   ",
".............................................   .............................................   ",
".............................................   .............................................   ",
".............................................   .............................................   ",
".............................................   .............................................   ",
"                                                                                                ",
"                                                                                                ",
"                                                                                                "
};
