/* XPM */
static char *_628433049990[] = {
/* columns rows colors chars-per-pixel */
"16 16 7 1 ",
"  c black",
". c #663931",
"X c #8F563B",
"o c #5FCDE4",
"O c #CBDBFC",
"+ c white",
"@ c None",
/* pixels */
"@@@@@@@@@@@@@@@@",
"@@@@@@@@@@@@@@@@",
"@@@@@@@@@@    @@",
"@@@@@@@@@ +++ @@",
"@@@@@@@@ +OO+ @@",
"@@@@@@@ +OOO+ @@",
"@@@@@@ +OOO+ @@@",
"@@@@@ +OOO+ @@@@",
"@@   +OOO+ @@@@@",
"@@ X+OOO+ @@@@@@",
"@@@ Xoo+ @@@@@@@",
"@@ X.X+ @@@@@@@@",
"@ X.  X @@@@@@@@",
"@   @@  @@@@@@@@",
"@@@@@@@@@@@@@@@@",
"@@@@@@@@@@@@@@@@"
};
